<mxfile host="app.diagrams.net" modified="2021-10-07T02:00:16.866Z" agent="5.0 (Macintosh)" etag="nOJqW4YxmZ5TRxXzB2RK" version="15.4.3" type="github">
  <diagram id="fQvkX-NQG2zP7BATs-iA" name="Page-1">
    <mxGraphModel dx="1355" dy="767" grid="1" gridSize="10" guides="1" tooltips="1" connect="1" arrows="1" fold="1" page="1" pageScale="1" pageWidth="1169" pageHeight="1654" math="0" shadow="0">
      <root>
        <mxCell id="0" />
        <mxCell id="1" parent="0" />
        <mxCell id="x4TZJO_Czp6a400uAD1y-1" value="users" style="swimlane;fontStyle=0;childLayout=stackLayout;horizontal=1;startSize=30;horizontalStack=0;resizeParent=1;resizeParentMax=0;resizeLast=0;collapsible=1;marginBottom=0;" vertex="1" parent="1">
          <mxGeometry x="410" y="50" width="140" height="90" as="geometry" />
        </mxCell>
        <mxCell id="x4TZJO_Czp6a400uAD1y-2" value="email" style="text;strokeColor=none;fillColor=none;align=left;verticalAlign=middle;spacingLeft=4;spacingRight=4;overflow=hidden;points=[[0,0.5],[1,0.5]];portConstraint=eastwest;rotatable=0;" vertex="1" parent="x4TZJO_Czp6a400uAD1y-1">
          <mxGeometry y="30" width="140" height="30" as="geometry" />
        </mxCell>
        <mxCell id="x4TZJO_Czp6a400uAD1y-3" value="password" style="text;strokeColor=none;fillColor=none;align=left;verticalAlign=middle;spacingLeft=4;spacingRight=4;overflow=hidden;points=[[0,0.5],[1,0.5]];portConstraint=eastwest;rotatable=0;" vertex="1" parent="x4TZJO_Czp6a400uAD1y-1">
          <mxGeometry y="60" width="140" height="30" as="geometry" />
        </mxCell>
        <mxCell id="x4TZJO_Czp6a400uAD1y-11" value="classes" style="swimlane;fontStyle=0;childLayout=stackLayout;horizontal=1;startSize=30;horizontalStack=0;resizeParent=1;resizeParentMax=0;resizeLast=0;collapsible=1;marginBottom=0;" vertex="1" parent="1">
          <mxGeometry x="210" y="190" width="140" height="60" as="geometry" />
        </mxCell>
        <mxCell id="x4TZJO_Czp6a400uAD1y-12" value="has_students" style="text;strokeColor=none;fillColor=none;align=left;verticalAlign=middle;spacingLeft=4;spacingRight=4;overflow=hidden;points=[[0,0.5],[1,0.5]];portConstraint=eastwest;rotatable=0;" vertex="1" parent="x4TZJO_Czp6a400uAD1y-11">
          <mxGeometry y="30" width="140" height="30" as="geometry" />
        </mxCell>
        <mxCell id="x4TZJO_Czp6a400uAD1y-14" value="wallet" style="swimlane;fontStyle=0;childLayout=stackLayout;horizontal=1;startSize=30;horizontalStack=0;resizeParent=1;resizeParentMax=0;resizeLast=0;collapsible=1;marginBottom=0;" vertex="1" parent="1">
          <mxGeometry x="710" y="90" width="140" height="90" as="geometry" />
        </mxCell>
        <mxCell id="x4TZJO_Czp6a400uAD1y-15" value="user_id" style="text;strokeColor=none;fillColor=none;align=left;verticalAlign=middle;spacingLeft=4;spacingRight=4;overflow=hidden;points=[[0,0.5],[1,0.5]];portConstraint=eastwest;rotatable=0;" vertex="1" parent="x4TZJO_Czp6a400uAD1y-14">
          <mxGeometry y="30" width="140" height="30" as="geometry" />
        </mxCell>
        <mxCell id="x4TZJO_Czp6a400uAD1y-16" value="has_accounts" style="text;strokeColor=none;fillColor=none;align=left;verticalAlign=middle;spacingLeft=4;spacingRight=4;overflow=hidden;points=[[0,0.5],[1,0.5]];portConstraint=eastwest;rotatable=0;" vertex="1" parent="x4TZJO_Czp6a400uAD1y-14">
          <mxGeometry y="60" width="140" height="30" as="geometry" />
        </mxCell>
        <mxCell id="x4TZJO_Czp6a400uAD1y-17" value="courses" style="swimlane;fontStyle=0;childLayout=stackLayout;horizontal=1;startSize=30;horizontalStack=0;resizeParent=1;resizeParentMax=0;resizeLast=0;collapsible=1;marginBottom=0;" vertex="1" parent="1">
          <mxGeometry x="10" y="190" width="140" height="60" as="geometry" />
        </mxCell>
        <mxCell id="x4TZJO_Czp6a400uAD1y-18" value="has_curriculums" style="text;strokeColor=none;fillColor=none;align=left;verticalAlign=middle;spacingLeft=4;spacingRight=4;overflow=hidden;points=[[0,0.5],[1,0.5]];portConstraint=eastwest;rotatable=0;" vertex="1" parent="x4TZJO_Czp6a400uAD1y-17">
          <mxGeometry y="30" width="140" height="30" as="geometry" />
        </mxCell>
        <mxCell id="x4TZJO_Czp6a400uAD1y-22" value="accounts" style="swimlane;fontStyle=0;childLayout=stackLayout;horizontal=1;startSize=30;horizontalStack=0;resizeParent=1;resizeParentMax=0;resizeLast=0;collapsible=1;marginBottom=0;" vertex="1" parent="1">
          <mxGeometry x="470" y="240" width="140" height="180" as="geometry" />
        </mxCell>
        <mxCell id="x4TZJO_Czp6a400uAD1y-23" value="user_id" style="text;strokeColor=none;fillColor=none;align=left;verticalAlign=middle;spacingLeft=4;spacingRight=4;overflow=hidden;points=[[0,0.5],[1,0.5]];portConstraint=eastwest;rotatable=0;" vertex="1" parent="x4TZJO_Czp6a400uAD1y-22">
          <mxGeometry y="30" width="140" height="30" as="geometry" />
        </mxCell>
        <mxCell id="x4TZJO_Czp6a400uAD1y-24" value="course_id" style="text;strokeColor=none;fillColor=none;align=left;verticalAlign=middle;spacingLeft=4;spacingRight=4;overflow=hidden;points=[[0,0.5],[1,0.5]];portConstraint=eastwest;rotatable=0;" vertex="1" parent="x4TZJO_Czp6a400uAD1y-22">
          <mxGeometry y="60" width="140" height="30" as="geometry" />
        </mxCell>
        <mxCell id="x4TZJO_Czp6a400uAD1y-25" value="class_id" style="text;strokeColor=none;fillColor=none;align=left;verticalAlign=middle;spacingLeft=4;spacingRight=4;overflow=hidden;points=[[0,0.5],[1,0.5]];portConstraint=eastwest;rotatable=0;" vertex="1" parent="x4TZJO_Czp6a400uAD1y-22">
          <mxGeometry y="90" width="140" height="30" as="geometry" />
        </mxCell>
        <mxCell id="x4TZJO_Czp6a400uAD1y-26" value="wallet_id" style="text;strokeColor=none;fillColor=none;align=left;verticalAlign=middle;spacingLeft=4;spacingRight=4;overflow=hidden;points=[[0,0.5],[1,0.5]];portConstraint=eastwest;rotatable=0;" vertex="1" parent="x4TZJO_Czp6a400uAD1y-22">
          <mxGeometry y="120" width="140" height="30" as="geometry" />
        </mxCell>
        <mxCell id="x4TZJO_Czp6a400uAD1y-27" value="additional_fields" style="text;strokeColor=none;fillColor=none;align=left;verticalAlign=middle;spacingLeft=4;spacingRight=4;overflow=hidden;points=[[0,0.5],[1,0.5]];portConstraint=eastwest;rotatable=0;" vertex="1" parent="x4TZJO_Czp6a400uAD1y-22">
          <mxGeometry y="150" width="140" height="30" as="geometry" />
        </mxCell>
        <mxCell id="x4TZJO_Czp6a400uAD1y-28" value="I_Profile" style="swimlane;fontStyle=0;childLayout=stackLayout;horizontal=1;startSize=20;horizontalStack=0;resizeParent=1;resizeParentMax=0;resizeLast=0;collapsible=1;marginBottom=0;" vertex="1" parent="1">
          <mxGeometry x="810" y="300" width="140" height="140" as="geometry" />
        </mxCell>
        <mxCell id="x4TZJO_Czp6a400uAD1y-29" value="- getDisplayName()" style="text;strokeColor=none;fillColor=none;align=left;verticalAlign=middle;spacingLeft=4;spacingRight=4;overflow=hidden;points=[[0,0.5],[1,0.5]];portConstraint=eastwest;rotatable=0;" vertex="1" parent="x4TZJO_Czp6a400uAD1y-28">
          <mxGeometry y="20" width="140" height="30" as="geometry" />
        </mxCell>
        <mxCell id="x4TZJO_Czp6a400uAD1y-32" value="- getAvatar()" style="text;strokeColor=none;fillColor=none;align=left;verticalAlign=middle;spacingLeft=4;spacingRight=4;overflow=hidden;points=[[0,0.5],[1,0.5]];portConstraint=eastwest;rotatable=0;" vertex="1" parent="x4TZJO_Czp6a400uAD1y-28">
          <mxGeometry y="50" width="140" height="30" as="geometry" />
        </mxCell>
        <mxCell id="x4TZJO_Czp6a400uAD1y-33" value="- changeDisplayName()" style="text;strokeColor=none;fillColor=none;align=left;verticalAlign=middle;spacingLeft=4;spacingRight=4;overflow=hidden;points=[[0,0.5],[1,0.5]];portConstraint=eastwest;rotatable=0;" vertex="1" parent="x4TZJO_Czp6a400uAD1y-28">
          <mxGeometry y="80" width="140" height="30" as="geometry" />
        </mxCell>
        <mxCell id="x4TZJO_Czp6a400uAD1y-34" value="- changeAvatar()" style="text;strokeColor=none;fillColor=none;align=left;verticalAlign=middle;spacingLeft=4;spacingRight=4;overflow=hidden;points=[[0,0.5],[1,0.5]];portConstraint=eastwest;rotatable=0;" vertex="1" parent="x4TZJO_Czp6a400uAD1y-28">
          <mxGeometry y="110" width="140" height="30" as="geometry" />
        </mxCell>
      </root>
    </mxGraphModel>
  </diagram>
</mxfile>
